# xmcd
#
# Track frame offsets:
#	150
#	25415
#	43287
#	65650
#	93762
#	118675
#	138857
#	160517
#
# Disc length: 2440 seconds
#
# Revision: 1
# Processed by: cddbd v1.5.1PL0 Copyright (c) Steve Scherf et al.
# Submitted via: CDex 1.50Beta5
#
DISCID=65098608
DTITLE=小椋佳 - 消すことのできない季節-雨の中の青春II- Disc 1
DYEAR=1988
DGENRE=Pop
TTITLE0=しおさいの詩
TTITLE1=雨が降り時が流れて
TTITLE2=木戸をあけて
TTITLE3=砂漠の少年
TTITLE4=お前が行く朝
TTITLE5=春の雨はやさしいはずなのに
TTITLE6=海辺の恋
TTITLE7=白い浜辺に
EXTD=
EXTT0=
EXTT1=
EXTT2=
EXTT3=
EXTT4=
EXTT5=
EXTT6=
EXTT7=
PLAYORDER=
